[CENTER]EK THA TIGER-MC DVDSCR-2012[/CENTER]
[CENTER][CODE]General
Complete name                            : J:Ek Tha TigerEk Tha Tiger (2012) MCDVDSCR  Rip - Xvid- 1CD - Team Ictv Exclusive-=FaHiM=-=029=-.avi
Format                                   : AVI
Format/Info                              : Audio Video Interleave
File size                                : 700 MiB
Duration                                 : 2h 7mn
Overall bit rate mode                    : Variable
Overall bit rate                         : 770 Kbps

Video
ID                                       : 0
Format                                   : MPEG-4 Visual
Format profile                           : Advanced Simple@L5
Format settings, BVOP                    : 2
Format settings, QPel                    : No
Format settings, GMC                     : No warppoints
Format settings, Matrix                  : Default (H.263)
Codec ID                                 : XVID
Codec ID/Hint                            : XviD
Duration                                 : 2h 7mn
Bit rate                                 : 652 Kbps
Width                                    : 640 pixels
Height                                   : 272 pixels
Display aspect ratio                     : 2.35:1
Frame rate                               : 23.976 fps
Color space                              : YUV
Chroma subsampling                       : 4:2:0
Bit depth                                : 8 bits
Scan type                                : Progressive
Compression mode                         : Lossy
Bits/(Pixel*Frame)                       : 0.156
Stream size                              : 592 MiB (85%)
Writing library                          : XviD 1.2.1 (UTC 2008-12-04)

Audio
ID                                       : 1
Format                                   : MPEG Audio
Format version                           : Version 1
Format profile                           : Layer 3
Mode                                     : Joint stereo
Mode extension                           : MS Stereo
Codec ID                                 : 55
Codec ID/Hint                            : MP3
Duration                                 : 2h 7mn
Bit rate mode                            : Variable
Bit rate                                 : 106 Kbps
Nominal bit rate                         : 112 Kbps
Channel(s)                               : 2 channels
Sampling rate                            : 44.1 KHz
Compression mode                         : Lossy
Stream size                              : 95.9 MiB (14%)
Alignment                                : Aligned on interleaves
Interleave, duration                     : 26 ms (0.63 video frame)
Interleave, preload duration             : 173 ms
Title                                    : VTS_01_1 T80 2_0ch 192Kbps DELAY 0ms
Writing library                          : LAME3.99r
Encoding settings                        : -m j -V 4 -q 2 -lowpass 15.6 --abr 112[/CODE][/CENTER]
[CENTER][IMG]http://bayimg.com/GabPiAAeg[/IMG]
[IMG]http://bayimg.com/gaBPjAaeg[/IMG]
[IMG]http://bayimg.com/GABPMAaEg[/IMG]
[IMG]http://bayimg.com/gAbpnAaeG[/IMG]
[IMG]http://bayimg.com/GabPOAAEG[/IMG]
[IMG]http://bayimg.com/gaBPPAAeg[/IMG]
[IMG]http://bayimg.com/HABPaAaeg[/IMG]
[IMG]http://bayimg.com/HAbPbAAeg[/IMG]
[IMG]http://bayimg.com/haBPDAAeg[/IMG]
[IMG]http://bayimg.com/hAbPgaAeG[/IMG]
[IMG]http://bayimg.com/hABPHAaeG[/IMG]
[IMG]http://bayimg.com/habpIAaeg[/IMG]
[IMG]http://bayimg.com/HabPMaAEG[/IMG]
[IMG]http://bayimg.com/HabPnAaeG[/IMG]
Enjoy & Plz Keep on Seeding After Finishing Downloading.[/CENTER

